<svg width="42" height="32" viewBox="0 0 42 32" fill="none" xmlns="http://www.w3.org/2000/svg">
<g clip-path="url(#clip0_37_48)">
<path d="M34.3009 9.13929V18.344L32.4444 16.4806V9.24043C32.4444 8.07168 31.7872 7.46483 30.6457 7.46483H10.7549C9.60185 7.46483 8.95612 8.07168 8.95612 9.24043V22.771C8.95612 23.9397 9.60185 24.5353 10.7549 24.5353H26.8637L26.84 26.3445H10.7203C8.32192 26.3445 7.09964 25.1872 7.09964 22.8721V9.13929C7.09964 6.82427 8.32192 5.65552 10.7203 5.65552H30.6802C33.0901 5.65552 34.3009 6.82427 34.3009 9.13929Z" fill="white" fill-opacity="0.85"/>
<path d="M30.8647 10.0156V14.8947L30.4149 14.4433C29.1465 13.1847 27.0018 14.005 26.9788 15.7806L26.8837 23.0066H11.5505C10.9048 23.0066 10.5358 22.6358 10.5358 21.9952V10.0156C10.5358 9.375 10.9048 9.00415 11.5505 9.00415H29.85C30.4957 9.00415 30.8647 9.375 30.8647 10.0156Z" fill="#FFD60A"/>
<path d="M28.4433 24.7822C28.4317 25.2205 28.962 25.3553 29.2504 25.0856L31.0146 23.355L32.9864 28.1086C33.0786 28.3221 33.3093 28.4234 33.5168 28.3447L34.6583 27.8952C34.8658 27.8053 34.9466 27.5692 34.8428 27.3557L32.7789 22.6808L35.258 22.5796C35.6961 22.557 35.9037 22.1526 35.5923 21.8266L29.2965 15.5221C28.9967 15.23 28.5585 15.3986 28.547 15.8143L28.4433 24.7822Z" fill="white" fill-opacity="0.85"/>
</g>
<defs>
<clipPath id="clip0_37_48">
<rect width="40.2769" height="32.0001" fill="white" transform="translate(0.861565)"/>
</clipPath>
</defs>
</svg>
