<svg width="44" height="32" viewBox="0 0 44 32" fill="none" xmlns="http://www.w3.org/2000/svg">
<path d="M30.6544 7.59065V9.41956H28.7299V7.69823C28.7299 6.45505 28.0485 5.80956 26.8652 5.80956H10.5962C9.40084 5.80956 8.74338 6.45505 8.74338 7.69823V18.7673C8.74338 20.0105 9.40084 20.6441 10.5962 20.6441H12.724V22.5686H10.5723C8.06203 22.5686 6.81885 21.3373 6.81885 18.8629V7.59065C6.81885 5.12819 8.06203 3.88501 10.5723 3.88501H26.901C29.3873 3.88501 30.6544 5.12819 30.6544 7.59065Z" fill="#FFD60A"/>
<path d="M36.5595 13.1251V16.6583C36.2474 16.6121 35.9274 16.5917 35.6032 16.5917C35.2749 16.5917 34.9511 16.6127 34.635 16.6606V13.2327C34.635 11.9895 33.9536 11.344 32.7703 11.344H16.5012C15.3059 11.344 14.6485 11.9895 14.6485 13.2327V24.3017C14.6485 25.5449 15.3059 26.1785 16.5012 26.1785H28.1368C28.3014 26.8635 28.5667 27.5097 28.915 28.103H16.4774C13.9671 28.103 12.7239 26.8718 12.7239 24.3973V13.1251C12.7239 10.6626 13.9671 9.41943 16.4774 9.41943H32.8061C35.2925 9.41943 36.5595 10.6626 36.5595 13.1251Z" fill="#FFD60A"/>
<path d="M35.0893 30.4819H36.1052C36.4878 30.4819 36.7627 30.2547 36.8583 29.8841L37.1452 28.7007C37.3007 28.6649 37.5039 28.5812 37.6593 28.4975L38.6993 29.119C39.0101 29.3224 39.3566 29.3224 39.6435 29.0355L40.337 28.3182C40.5998 28.0432 40.6238 27.6967 40.4206 27.3619L39.799 26.3219C39.9065 26.1666 39.9544 26.0112 40.0141 25.8438L41.1976 25.5688C41.5682 25.4732 41.8072 25.1863 41.8072 24.8159V23.7998C41.8072 23.4411 41.5561 23.1781 41.1976 23.0825L40.026 22.7956C39.9544 22.5924 39.8707 22.4371 39.8229 22.3055L40.4565 21.2416C40.6596 20.9309 40.6238 20.5484 40.3728 20.2973L39.6435 19.604C39.3686 19.3291 39.0101 19.2694 38.7113 19.4606L37.6593 20.118C37.4681 20.0223 37.3007 19.9746 37.1452 19.9148L36.8583 18.7195C36.7627 18.3608 36.4878 18.1218 36.1052 18.1218H35.0893C34.7068 18.1218 34.4199 18.3728 34.3362 18.7195L34.0732 19.9028C33.858 19.9746 33.6906 20.0223 33.5113 20.118L32.4833 19.4606C32.1965 19.2813 31.8259 19.3291 31.551 19.604L30.8577 20.2973C30.6066 20.5603 30.5229 20.9309 30.7142 21.2416L31.3717 22.3055C31.3238 22.4371 31.2402 22.6162 31.1685 22.7956L29.9969 23.0825C29.6384 23.1781 29.3993 23.453 29.3993 23.7998V24.8159C29.3993 25.1863 29.6384 25.4732 29.9969 25.5688L31.1804 25.8438C31.2522 26.0112 31.3238 26.1666 31.3955 26.3219L30.774 27.3738C30.5828 27.6967 30.6186 28.0673 30.8697 28.3182L31.551 29.0355C31.8259 29.3224 32.1844 29.3103 32.4954 29.119L33.5473 28.4975C33.7385 28.5932 33.9058 28.6649 34.0732 28.7007L34.3362 29.8841C34.4199 30.2427 34.7068 30.4819 35.0893 30.4819ZM35.6032 26.2981C34.4795 26.2981 33.6189 25.4135 33.6189 24.3137C33.6189 23.214 34.4795 22.3174 35.6032 22.3055C36.679 22.2936 37.5995 23.214 37.5995 24.3137C37.5995 25.4135 36.679 26.2981 35.6032 26.2981Z" fill="white" fill-opacity="0.85"/>
</svg>
