<svg width="32" height="32" viewBox="0 0 32 32" fill="none" xmlns="http://www.w3.org/2000/svg">
<g clip-path="url(#clip0_37_97)">
<path d="M20.2557 29.9059H28.0833C28.6998 29.9059 29.0215 29.6112 29.0215 29.1152C29.0215 28.6058 28.6998 28.3378 28.0833 28.3378H25.0809V3.55457H28.0833C28.6998 3.55457 29.0215 3.27309 29.0215 2.76376C29.0215 2.26783 28.6998 1.99976 28.0833 1.99976H20.2557C19.6525 1.99976 19.3308 2.26783 19.3308 2.76376C19.3308 3.27309 19.6525 3.55457 20.2557 3.55457H23.2715V28.3378H20.2557C19.6525 28.3378 19.3308 28.6058 19.3308 29.1152C19.3308 29.6112 19.6525 29.9059 20.2557 29.9059Z" fill="white" fill-opacity="0.85"/>
<path d="M3.40742 25.8312C4.1178 25.8312 4.4663 25.5632 4.72097 24.826L6.45002 20.0812H14.3581L16.0871 24.826C16.3418 25.5632 16.6903 25.8312 17.3873 25.8312C18.0977 25.8312 18.5534 25.4023 18.5534 24.7322C18.5534 24.5043 18.5132 24.3032 18.4059 24.0083L12.1197 7.28072C11.8114 6.44971 11.2619 6.04761 10.4041 6.04761C9.57303 6.04761 9.01009 6.43631 8.71521 7.26732L2.42896 24.0217C2.30833 24.3166 2.28152 24.5177 2.28152 24.7455C2.28152 25.4157 2.71044 25.8312 3.40742 25.8312ZM7.13359 18.0304L10.3906 9.00979H10.4577L13.7147 18.0304H7.13359Z" fill="#FFD60A"/>
</g>
<defs>
<clipPath id="clip0_37_97">
<rect width="27.437" height="28" fill="white" transform="translate(2.28149 2)"/>
</clipPath>
</defs>
</svg>
