<svg width="57" height="56" viewBox="0 0 57 56" fill="none" xmlns="http://www.w3.org/2000/svg">
<path d="M28.514 40.6624C27.8576 40.6253 26.5238 40.9227 26.5485 41.6663C26.5751 42.463 27.5907 42.8843 28.2576 43.0361C28.2167 43.4656 27.8452 44.581 27.1764 44.581C26.703 44.581 26.3527 44.3654 26.0442 44.1756L26.0437 44.1753C26.0135 44.1566 25.9836 44.1382 25.9541 44.1203C25.9912 44.4178 26.3442 45.0644 27.1764 45.0644C28.213 45.0644 28.514 44.1203 28.514 44.1203C28.514 44.1203 28.787 45.0644 29.8236 45.0644C30.6558 45.0644 31.0088 44.4178 31.0459 44.1203C31.033 44.1282 31.02 44.1361 31.007 44.1441C30.9986 44.1492 30.9901 44.1544 30.9817 44.1596L30.9563 44.1753L30.9558 44.1756C30.6473 44.3654 30.297 44.581 29.8236 44.581C29.1548 44.581 28.7833 43.4656 28.7424 43.0361C29.4093 42.8843 30.4249 42.463 30.4515 41.6663C30.4762 40.9227 29.1703 40.6253 28.514 40.6624Z" fill="white"/>
<path d="M21.8263 32.8316C22.0641 33.2777 21.8672 33.7466 21.6814 33.821C21.441 33.9172 21.3509 33.7892 21.2026 33.5783C21.1772 33.5423 21.1502 33.5038 21.1204 33.4637C19.2998 31.0097 15.473 31.2327 14.7336 31.9619C14.7336 31.493 15.5777 30.6631 16.2161 30.6007C19.6342 30.266 21.529 32.2738 21.8263 32.8316Z" fill="white"/>
<path d="M35.1737 32.8316C34.9359 33.2777 35.1328 33.7466 35.3186 33.821C35.559 33.9172 35.6491 33.7892 35.7974 33.5783C35.8228 33.5423 35.8498 33.5038 35.8796 33.4637C37.7002 31.0097 41.527 31.2327 42.2664 31.9619C42.2664 31.493 41.4223 30.6631 40.7839 30.6007C37.3658 30.266 35.471 32.2738 35.1737 32.8316Z" fill="white"/>
<path d="M4.20052 36.7769C4.60157 40.1646 5.81671 46.6859 5.81671 46.6859C5.84293 47.1094 5.21132 47.2209 4.77641 47.1321C4.45399 47.0662 3.37592 46.3955 3.01924 46.0683C2.66257 45.7411 2.38763 45.1759 2.24994 44.455C2.11226 43.734 1.55714 40.4803 1.1244 36.4382C0.742891 32.8747 0.565064 29.2588 0.516339 28.2681C0.510003 28.1392 0.50585 28.0548 0.503716 28.0206C0.466561 27.4257 0.700563 26.9801 1.54402 26.6077C2.69608 26.0991 3.5394 26.2876 3.62464 26.868C3.62464 26.868 3.79947 33.3893 4.20052 36.7769Z" fill="white"/>
<path d="M52.7995 36.7769C52.3984 40.1646 51.1833 46.6859 51.1833 46.6859C51.1571 47.1094 51.7887 47.2209 52.2236 47.1321C52.546 47.0662 53.6241 46.3955 53.9808 46.0683C54.3374 45.7411 54.6124 45.1759 54.7501 44.455C54.8877 43.734 55.4429 40.4803 55.8756 36.4382C56.2571 32.8748 56.4349 29.259 56.4837 28.2681L56.484 28.2611C56.4901 28.1362 56.4942 28.0541 56.4963 28.0206C56.5334 27.4257 56.2994 26.9801 55.456 26.6077C54.3039 26.0991 53.4606 26.2876 53.3754 26.868C53.3754 26.868 53.2005 33.3893 52.7995 36.7769Z" fill="white"/>
<path fill-rule="evenodd" clip-rule="evenodd" d="M8.60325 39.547C7.86017 27.277 18.0366 24.6887 28.514 24.6887C38.9913 24.6887 49.1398 27.277 48.3967 39.547C47.7981 49.4317 37.9248 52.0174 28.514 52.0174C19.1031 52.0174 9.20187 49.4317 8.60325 39.547ZM9.8927 39.547C10.4979 48.7482 20.8561 50.4413 28.514 50.4413C36.1718 50.4413 46.5021 48.7482 47.1073 39.547C48.0142 25.7593 33.0626 25.9305 29.1344 26.0273C28.9558 26.0317 28.7999 26.03 28.6694 26.0285C28.6127 26.0279 28.5609 26.0273 28.514 26.0273C28.4671 26.0273 28.4152 26.0279 28.3586 26.0285C28.2281 26.03 28.0722 26.0317 27.8935 26.0273C23.9627 25.9305 8.98582 25.759 9.8927 39.547ZM26.5485 41.6663C26.5238 40.9227 27.8576 40.6253 28.514 40.6624C29.1703 40.6253 30.4762 40.9227 30.4515 41.6663C30.4249 42.463 29.4093 42.8843 28.7424 43.0361C28.7833 43.4656 29.1548 44.581 29.8236 44.581C30.297 44.581 30.6473 44.3654 30.9558 44.1756L30.9563 44.1753L30.9817 44.1596C30.9901 44.1544 30.9986 44.1492 31.007 44.1441C31.02 44.1361 31.033 44.1282 31.0459 44.1203C31.0088 44.4178 30.6558 45.0644 29.8236 45.0644C28.787 45.0644 28.514 44.1203 28.514 44.1203C28.514 44.1203 28.213 45.0644 27.1764 45.0644C26.3442 45.0644 25.9912 44.4178 25.9541 44.1203C25.9836 44.1382 26.0135 44.1566 26.0437 44.1753L26.0442 44.1756C26.3527 44.3654 26.703 44.581 27.1764 44.581C27.8452 44.581 28.2167 43.4656 28.2576 43.0361C27.5907 42.8843 26.5751 42.463 26.5485 41.6663ZM21.6814 33.821C21.8672 33.7466 22.0641 33.2777 21.8263 32.8316C21.529 32.2738 19.6342 30.266 16.2161 30.6007C15.5777 30.6631 14.7336 31.493 14.7336 31.9619C15.473 31.2327 19.2998 31.0097 21.1204 33.4637C21.1502 33.5038 21.1772 33.5423 21.2026 33.5783C21.3509 33.7892 21.441 33.9172 21.6814 33.821ZM35.3186 33.821C35.1328 33.7466 34.9359 33.2777 35.1737 32.8316C35.471 32.2738 37.3658 30.266 40.7839 30.6007C41.4223 30.6631 42.2664 31.493 42.2664 31.9619C41.527 31.2327 37.7002 31.0097 35.8796 33.4637C35.8498 33.5038 35.8228 33.5423 35.7974 33.5783C35.6491 33.7892 35.559 33.9172 35.3186 33.821Z" fill="white"/>
<path fill-rule="evenodd" clip-rule="evenodd" d="M4.73925 26.4962C5.25941 21.4394 7.04279 17.4982 7.04279 17.4982C3.32741 11.4747 3.14164 7.01288 5.37087 1.10096C5.50236 0.818973 5.74241 0.394496 5.92818 0.245772C6.11394 0.0970492 6.75347 -0.0595018 7.45148 0.022681C14.4735 0.849451 20.4925 5.37688 20.4925 5.37688C21.8052 5.00506 25.0587 4.33578 28.514 4.33578C31.9693 4.33578 35.1948 5.00506 36.5075 5.37688C36.5075 5.37688 42.5265 0.849451 49.5485 0.022681C50.2465 -0.0595018 50.8861 0.0970492 51.0718 0.245772C51.2576 0.394496 51.4976 0.818973 51.6291 1.10096C53.8584 7.01288 53.6726 11.4747 49.9572 17.4982C49.9572 17.4982 51.7406 21.4394 52.2607 26.4962C52.2607 26.4962 52.1602 33.2406 51.7685 36.7769C51.3769 40.3133 50.0425 47.1321 50.0425 47.1321C48.9388 50.7532 42.2656 56 28.514 56C14.7624 56 8.06122 50.7532 6.95754 47.1321C6.95754 47.1321 5.62314 40.3133 5.23146 36.7769C4.83978 33.2406 4.73925 26.4962 4.73925 26.4962ZM19.0063 8.76042C14.5479 9.26609 10.9316 13.5817 9.68071 15.6762C4.7021 9.68996 6.81987 3.66651 8.04594 2.84851C9.27202 2.0305 15.068 3.8896 19.0063 8.76042ZM37.9937 8.76042C42.4521 9.26609 46.0684 13.5817 47.3193 15.6762C52.2979 9.68996 50.1801 3.66651 48.9541 2.84851C47.728 2.0305 41.932 3.8896 37.9937 8.76042ZM28.514 23.5733C28.5482 23.5733 28.5858 23.5735 28.6265 23.5738C28.7194 23.5744 28.829 23.5751 28.954 23.5733C32.8185 23.5164 51.4526 23.2599 49.8195 39.6957C48.4951 53.0253 34.9153 53.4902 28.514 53.4902C22.1126 53.4902 8.50491 53.0253 7.18047 39.6957C5.54737 23.2597 24.2075 23.5164 28.0739 23.5733H28.514ZM8.60325 39.547C7.86017 27.277 18.0366 24.6887 28.514 24.6887C38.9913 24.6887 49.1398 27.277 48.3967 39.547C47.7981 49.4317 37.9248 52.0174 28.514 52.0174C19.1031 52.0174 9.20187 49.4317 8.60325 39.547ZM9.8927 39.547C10.4979 48.7482 20.8561 50.4413 28.514 50.4413C36.1718 50.4413 46.5021 48.7482 47.1073 39.547C48.0142 25.7593 33.0626 25.9305 29.1344 26.0273C28.9558 26.0317 28.7999 26.03 28.6694 26.0285C28.6127 26.0279 28.5609 26.0273 28.514 26.0273C28.4671 26.0273 28.4152 26.0279 28.3586 26.0285C28.2281 26.03 28.0722 26.0317 27.8935 26.0273C23.9627 25.9305 8.98582 25.759 9.8927 39.547ZM26.5485 41.6663C26.5238 40.9227 27.8576 40.6253 28.514 40.6624C29.1703 40.6253 30.4762 40.9227 30.4515 41.6663C30.4249 42.463 29.4093 42.8843 28.7424 43.0361C28.7833 43.4656 29.1548 44.581 29.8236 44.581C30.297 44.581 30.6473 44.3654 30.9558 44.1756L30.9563 44.1753L30.9817 44.1596C30.9901 44.1544 30.9986 44.1492 31.007 44.1441C31.02 44.1361 31.033 44.1282 31.0459 44.1203C31.0088 44.4178 30.6558 45.0644 29.8236 45.0644C28.787 45.0644 28.514 44.1203 28.514 44.1203C28.514 44.1203 28.213 45.0644 27.1764 45.0644C26.3442 45.0644 25.9912 44.4178 25.9541 44.1203C25.9836 44.1382 26.0135 44.1566 26.0437 44.1753L26.0442 44.1756C26.3527 44.3654 26.703 44.581 27.1764 44.581C27.8452 44.581 28.2167 43.4656 28.2576 43.0361C27.5907 42.8843 26.5751 42.463 26.5485 41.6663ZM21.6814 33.821C21.8672 33.7466 22.0641 33.2777 21.8263 32.8316C21.529 32.2738 19.6342 30.266 16.2161 30.6007C15.5777 30.6631 14.7336 31.493 14.7336 31.9619C15.473 31.2327 19.2998 31.0097 21.1204 33.4637C21.1502 33.5038 21.1772 33.5423 21.2026 33.5783C21.3509 33.7892 21.441 33.9172 21.6814 33.821ZM35.3186 33.821C35.1328 33.7466 34.9359 33.2777 35.1737 32.8316C35.471 32.2738 37.3658 30.266 40.7839 30.6007C41.4223 30.6631 42.2664 31.493 42.2664 31.9619C41.527 31.2327 37.7002 31.0097 35.8796 33.4637C35.8498 33.5038 35.8228 33.5423 35.7974 33.5783C35.6491 33.7892 35.559 33.9172 35.3186 33.821Z" fill="white"/>
<path fill-rule="evenodd" clip-rule="evenodd" d="M18.5567 42.9819C21.1422 42.9819 23.2381 41.0176 23.2381 38.5945C23.2381 36.1714 21.1422 34.207 18.5567 34.207C16.9645 34.207 15.558 34.952 14.7123 36.0903C15.0592 35.7014 15.4897 35.4711 15.956 35.4711C17.1051 35.4711 18.0366 36.8694 18.0366 38.5944C18.0366 40.3193 17.1051 41.7176 15.956 41.7176C15.4892 41.7176 15.0583 41.4869 14.7112 41.0972C15.5568 42.2364 16.9639 42.9819 18.5567 42.9819ZM13.8756 38.6407C13.8755 38.6253 13.8754 38.6098 13.8754 38.5944C13.8754 38.5796 13.8755 38.5648 13.8756 38.55C13.8754 38.5648 13.8754 38.5796 13.8754 38.5945C13.8754 38.6099 13.8755 38.6253 13.8756 38.6407Z" fill="white"/>
<path fill-rule="evenodd" clip-rule="evenodd" d="M33.79 38.6407C33.7899 38.6253 33.7898 38.6099 33.7898 38.5945C33.7898 38.5796 33.7899 38.5648 33.79 38.55C33.7899 38.5648 33.7898 38.5796 33.7898 38.5944C33.7898 38.6098 33.7899 38.6253 33.79 38.6407ZM34.6256 41.0972C35.4712 42.2364 36.8783 42.9819 38.4712 42.9819C41.0566 42.9819 43.1526 41.0176 43.1526 38.5945C43.1526 36.1714 41.0566 34.207 38.4712 34.207C36.879 34.207 35.4724 34.952 34.6267 36.0903C34.9737 35.7014 35.4041 35.4711 35.8704 35.4711C37.0195 35.4711 37.951 36.8694 37.951 38.5944C37.951 40.3193 37.0195 41.7176 35.8704 41.7176C35.4036 41.7176 34.9728 41.4869 34.6256 41.0972Z" fill="white"/>
</svg>
