<?xml version="1.0" standalone="no"?>
<!DOCTYPE svg PUBLIC "-//W3C//DTD SVG 20010904//EN"
 "http://www.w3.org/TR/2001/REC-SVG-20010904/DTD/svg10.dtd">
<svg version="1.0" xmlns="http://www.w3.org/2000/svg"
 width="552.000000pt" height="552.000000pt" viewBox="0 0 552.000000 552.000000"
 preserveAspectRatio="xMidYMid meet">
<metadata>
Created by potrace 1.14, written by Peter Selinger 2001-2017
</metadata>
<g transform="translate(0.000000,552.000000) scale(0.100000,-0.100000)"
fill="#000000" stroke="none">
<path d="M3544 5511 c-66 -16 -196 -107 -260 -181 -12 -14 -31 -36 -43 -49
l-20 -23 -53 47 c-64 56 -316 185 -363 185 -18 0 -39 -8 -48 -18 -18 -19 -48
-106 -103 -292 -18 -63 -44 -141 -56 -172 l-22 -57 -61 -10 c-33 -6 -91 -16
-129 -21 -162 -25 -522 -132 -670 -199 -171 -78 -392 -246 -436 -331 -10 -20
-21 -56 -25 -81 -6 -41 -11 -47 -52 -69 -90 -48 -122 -78 -152 -143 -16 -34
-30 -82 -31 -107 -4 -120 0 -110 -70 -153 -137 -84 -258 -182 -362 -294 -151
-163 -304 -481 -354 -738 -2 -11 -6 -31 -9 -45 -25 -126 -25 -392 0 -535 45
-261 145 -495 267 -626 l33 -37 -34 -8 c-25 -6 -44 -22 -66 -52 l-30 -44 23
-18 c12 -10 22 -21 22 -25 0 -4 -10 -15 -22 -25 l-23 -19 33 -64 c40 -79 65
-106 103 -114 16 -3 29 -9 29 -12 0 -4 -21 -28 -46 -54 -36 -38 -45 -53 -41
-73 3 -19 -2 -29 -22 -41 -59 -37 -90 -82 -95 -140 -5 -65 39 -140 102 -172
35 -18 59 -19 327 -16 303 4 319 5 500 30 48 7 143 22 240 40 11 2 56 11 100
20 44 9 82 17 85 17 3 1 23 -7 44 -16 38 -17 209 -53 447 -95 63 -11 138 -25
167 -30 50 -10 165 -67 377 -186 108 -61 205 -111 234 -120 13 -4 36 -21 49
-37 43 -51 319 -277 357 -293 31 -13 88 -7 114 13 44 33 63 80 58 147 -3 33
-8 67 -11 75 -5 11 19 25 102 59 186 76 523 246 629 317 231 156 464 391 615
620 177 268 348 684 383 929 3 22 8 47 11 56 5 19 12 63 23 164 9 77 7 404 -3
475 -4 25 -9 63 -12 85 -49 383 -275 877 -528 1160 -20 22 -36 49 -37 60 -8
234 -236 649 -521 945 -118 124 -317 278 -448 349 -79 42 -154 57 -216 42z
m-2435 -1757 c-14 -17 -19 -112 -7 -136 5 -10 4 -19 -2 -23 -6 -4 -7 -12 -3
-18 4 -7 8 -21 9 -32 4 -52 10 -81 19 -87 6 -4 1 -8 -9 -8 -18 0 -18 -1 -3
-12 17 -13 31 -81 21 -110 -2 -9 -12 -19 -20 -22 -12 -5 -15 -2 -10 9 3 9 2
13 -4 10 -6 -3 -10 -1 -10 6 0 7 -3 10 -6 7 -9 -10 16 -49 27 -43 5 4 9 1 9
-4 0 -6 -5 -11 -10 -11 -6 0 -9 -5 -8 -11 2 -6 -3 -14 -11 -17 -9 -3 -11 0 -6
8 6 9 3 9 -14 1 -27 -15 -27 -31 0 -38 15 -4 17 -8 8 -14 -7 -4 -14 -18 -16
-30 -4 -27 -8 -32 -29 -35 -10 -2 -14 3 -10 12 3 9 1 12 -4 9 -6 -3 -10 -1
-10 6 0 7 -3 10 -6 7 -9 -10 16 -49 27 -43 10 7 13 -18 2 -29 -4 -3 -8 -17
-10 -29 -2 -12 -8 -23 -13 -25 -5 -2 -6 -10 -3 -19 5 -12 3 -14 -7 -8 -10 6
-12 4 -7 -7 3 -9 -1 -27 -8 -41 -7 -14 -11 -28 -8 -31 3 -3 0 -13 -8 -22 -7
-9 -14 -25 -16 -37 -2 -11 -8 -27 -15 -34 -6 -7 -8 -16 -5 -19 8 -8 -16 -33
-25 -27 -4 2 -5 -3 -2 -11 6 -16 -44 -106 -60 -106 -4 0 -1 11 8 25 15 23 15
25 -5 35 -11 7 -23 9 -27 6 -3 -3 0 -6 7 -6 7 0 9 -4 6 -10 -4 -6 1 -7 10 -3
15 5 15 3 4 -15 -7 -11 -18 -20 -23 -19 -6 1 -11 -7 -11 -18 -1 -11 -4 -25 -8
-32 -11 -18 -70 -44 -76 -34 -3 5 -15 10 -26 13 -13 2 -19 10 -17 23 2 19 2
19 -10 -1 -7 -12 -18 -19 -25 -17 -23 8 -90 -78 -77 -99 3 -5 -2 -8 -11 -6
-10 2 -20 -4 -22 -12 -4 -13 -3 -13 6 0 9 12 11 12 16 -2 4 -9 8 -22 9 -30 2
-7 7 -24 13 -37 10 -25 -5 -91 -20 -91 -5 0 -6 4 -3 9 8 13 -4 41 -17 41 -7 0
-7 -4 1 -12 17 -17 15 -33 -3 -18 -9 7 -15 8 -15 2 0 -5 7 -13 15 -16 14 -5
14 -9 -1 -31 -13 -20 -14 -29 -5 -38 10 -9 11 -9 6 3 -3 9 2 24 11 35 16 20
16 20 9 0 -12 -36 -13 -50 -1 -64 9 -11 7 -13 -13 -6 -16 5 -21 4 -17 -4 4 -6
13 -11 21 -11 17 0 21 -15 20 -75 -1 -44 -3 -50 -20 -47 -16 2 -17 1 -5 -7 8
-5 18 -7 22 -5 4 3 8 2 9 -3 0 -4 2 -20 4 -35 2 -15 -1 -30 -6 -33 -5 -3 -6 2
-3 12 4 14 4 15 -4 4 -5 -7 -16 -17 -23 -22 -9 -6 -3 -8 19 -5 25 3 30 1 22
-9 -8 -9 -7 -14 2 -18 7 -2 10 -7 7 -11 -4 -4 -14 0 -23 9 -9 9 -16 12 -16 7
0 -5 10 -16 23 -25 13 -8 23 -26 25 -42 1 -15 5 -32 9 -38 4 -7 9 -23 11 -37
2 -13 7 -30 13 -36 5 -6 6 -14 2 -17 -3 -4 -1 -7 5 -7 7 0 12 -5 12 -10 0 -6
-3 -9 -7 -8 -17 3 -43 -15 -36 -25 9 -15 12 -97 4 -97 -4 0 -8 6 -8 13 -2 27
-11 73 -18 90 -5 12 -2 17 9 17 8 0 20 10 26 23 10 20 10 20 -3 5 -8 -10 -20
-18 -26 -18 -8 0 -7 5 3 16 22 21 20 31 -2 11 -17 -16 -45 -18 -58 -4 -4 4 -2
7 5 7 8 0 11 6 7 16 -4 12 -2 15 9 10 8 -3 15 -1 15 4 0 6 -7 10 -15 10 -8 0
-15 5 -15 10 0 6 -5 10 -11 10 -8 0 -8 -5 1 -15 8 -10 9 -15 2 -15 -10 0 -32
30 -32 43 0 11 38 0 64 -19 26 -19 27 -21 11 -37 -9 -9 -11 -17 -5 -17 6 0 13
7 16 15 4 8 9 13 13 10 4 -2 8 2 8 10 0 8 -3 12 -7 10 -10 -6 -66 42 -58 50 4
4 17 -2 29 -14 12 -11 25 -18 28 -15 3 3 -1 9 -8 13 -7 5 -11 13 -8 18 4 6 -7
9 -24 8 -17 -1 -34 -8 -39 -15 -4 -7 -10 -8 -13 -3 -4 6 5 20 20 33 20 17 27
19 34 9 4 -7 11 -10 15 -6 4 4 -1 13 -11 21 -16 12 -21 10 -43 -15 -13 -16
-29 -29 -35 -29 -8 0 -7 4 1 12 14 14 16 38 2 38 -5 0 -6 -7 -3 -17 5 -12 3
-14 -7 -8 -9 5 -11 4 -6 -3 4 -7 5 -12 2 -12 -2 0 -12 -3 -21 -7 -16 -6 -16
-4 -1 19 14 21 14 25 2 25 -8 0 -14 -5 -13 -10 1 -5 -5 -12 -13 -14 -13 -4
-13 -3 0 6 13 9 8 15 -11 13 -3 -1 -6 5 -6 13 0 8 5 11 10 8 5 -3 7 0 5 8 -3
8 -12 13 -21 13 -13 -1 -14 2 -6 17 11 22 20 25 17 7 -2 -7 5 -12 15 -12 13 1
16 -3 12 -16 -4 -14 0 -17 21 -17 22 -1 24 1 10 9 -9 5 -14 13 -11 19 7 10 25
-5 41 -34 9 -16 11 -16 22 8 7 15 8 25 2 25 -6 0 -10 -7 -10 -16 0 -12 -5 -10
-20 9 -12 15 -27 24 -35 20 -8 -3 -15 -1 -15 5 0 17 29 22 44 7 22 -23 32 -18
11 5 -11 12 -25 18 -34 14 -33 -12 -52 -13 -48 -1 2 7 11 11 20 9 23 -4 87 64
86 91 -1 21 -1 21 -7 2 -15 -46 -63 -88 -88 -78 -17 6 -9 23 9 19 7 -1 9 -1 5
1 -19 11 -5 23 20 18 23 -5 24 -4 6 4 -23 10 -41 31 -27 31 5 0 15 -6 22 -12
11 -10 13 -10 7 0 -4 6 -3 12 3 12 5 0 12 -5 14 -10 3 -6 4 -5 3 2 -1 7 -13
14 -25 14 -25 1 -59 30 -48 40 3 3 14 -1 23 -10 18 -19 36 -17 42 5 3 11 2 11
-7 -1 -10 -13 -14 -12 -32 9 -17 21 -22 22 -30 10 -5 -7 -9 -17 -9 -21 0 -4
-8 -5 -18 -2 -11 4 -13 3 -5 -3 9 -6 6 -12 -10 -22 -12 -8 -19 -10 -15 -6 4 5
3 14 -3 22 -6 7 -8 13 -3 13 5 0 2 5 -6 10 -10 6 -11 10 -2 10 6 0 12 5 12 11
0 5 -4 8 -8 5 -5 -3 -9 1 -9 9 0 8 4 12 8 10 8 -6 21 24 14 34 -2 4 10 8 27 8
l31 0 -23 -19 c-25 -20 -35 -48 -19 -48 6 0 7 -5 4 -10 -4 -6 -11 -7 -17 -4
-7 4 -8 2 -4 -4 4 -6 13 -9 21 -6 16 7 27 32 19 45 -6 11 40 70 50 63 3 -2 4
-1 1 2 -2 4 0 16 6 28 10 21 10 21 -9 -1 l-19 -22 -27 28 c-28 29 -36 52 -11
31 10 -9 15 -9 15 -1 0 11 -9 14 -42 14 -9 0 -19 6 -22 13 -6 15 29 13 61 -4
14 -8 20 -18 16 -32 -3 -11 0 -20 6 -20 5 0 8 7 5 15 -5 11 -2 14 12 9 24 -9
11 5 -36 37 -19 13 -36 33 -38 44 -3 20 -2 20 15 0 10 -11 34 -31 53 -44 27
-19 24 -14 -14 22 l-50 46 42 41 42 41 -35 34 c-26 24 -33 38 -29 51 4 11 4
16 -1 12 -11 -10 -15 -59 -4 -52 5 3 9 1 9 -3 0 -5 11 -15 25 -23 l25 -15 -40
-39 c-22 -21 -40 -34 -40 -28 0 6 4 13 10 17 5 3 7 12 3 21 -3 8 -2 14 3 13
41 -7 44 11 5 34 -32 19 -35 46 -9 77 20 22 39 27 34 8 -1 -7 -1 -10 1 -5 8
14 22 -4 16 -21 -3 -11 1 -9 11 6 18 23 13 47 -9 38 -14 -5 -55 20 -55 35 0 5
11 2 25 -7 14 -9 28 -14 32 -10 3 3 2 6 -4 6 -5 0 -20 9 -33 20 -12 11 -27 17
-31 14 -5 -3 -9 0 -9 6 0 6 -4 9 -8 6 -5 -3 -9 1 -9 8 0 7 6 13 13 13 7 0 10
-5 7 -10 -3 -6 -1 -7 5 -3 6 3 14 1 18 -5 10 -16 25 11 18 34 -6 19 12 24 19
5 2 -7 3 -5 1 5 -2 13 2 17 12 13 8 -3 14 -1 14 4 0 6 -7 10 -15 10 -22 0 -18
14 11 39 19 17 23 26 15 34 -14 14 -15 30 -1 22 5 -3 17 -2 25 2 12 7 10 13
-14 34 -16 14 -36 24 -44 23 -10 -1 -14 3 -10 13 5 12 7 12 15 1 6 -9 8 -2 5
20 -2 18 0 35 5 38 5 3 6 9 4 13 -3 4 5 7 16 6 12 -1 24 -7 26 -13 2 -8 -3
-10 -15 -6 -15 5 -16 4 -3 -6 12 -9 11 -10 -9 -5 -16 5 -21 4 -17 -4 9 -15 46
-14 46 1 0 6 15 -5 34 -24 26 -27 34 -31 33 -17 -1 10 -3 16 -5 14 -2 -2 -16
7 -30 20 -29 27 -26 35 9 38 13 0 32 10 41 20 17 19 14 47 -4 47 -7 0 -6 -5 1
-13 8 -11 6 -18 -9 -32 -11 -10 -20 -13 -20 -7 0 6 5 14 10 17 7 4 7 12 0 25
-8 14 -5 19 11 23 12 3 22 0 26 -9 4 -12 8 -12 18 3 11 15 10 20 -6 31 -28 20
-23 35 6 16 14 -9 32 -14 40 -10 17 6 20 26 4 26 -5 0 -7 -4 -4 -10 8 -13 -11
-13 -35 0 -11 6 -17 16 -14 25 4 9 1 21 -5 29 -9 10 -5 13 19 14 16 0 40 8 52
18 20 14 20 15 3 9 -11 -4 -28 -8 -37 -9 -10 0 -18 -5 -19 -11 0 -5 -4 0 -10
13 -5 13 -14 20 -20 16 -8 -5 -8 -9 1 -14 9 -6 9 -9 1 -15 -9 -5 -9 -10 0 -21
13 -16 5 -44 -13 -44 -9 0 -9 3 -1 11 9 9 7 18 -5 37 -13 19 -13 24 -3 17 11
-6 13 -4 9 7 -4 8 6 28 22 45 16 17 26 34 22 37 -3 4 2 4 12 0 13 -5 17 -4 12
4 -3 6 -2 13 4 17 6 4 7 11 4 17 -4 7 -2 8 4 4 7 -4 12 -3 12 2 0 6 10 10 23
10 38 1 87 9 92 14 3 3 -1 8 -10 12 -9 3 -13 2 -10 -4 3 -6 2 -10 -4 -10 -5 0
-12 9 -16 19 -4 13 -11 18 -22 14 -14 -6 -14 -7 3 -13 18 -7 18 -7 -3 -18 -17
-9 -24 -9 -29 0 -5 7 -3 8 6 3 10 -6 12 -4 7 8 -6 17 24 42 37 30 3 -3 6 -1 6
5 0 7 -6 12 -12 12 -9 0 -8 3 2 9 8 6 18 7 22 5 4 -3 8 0 8 5 0 6 5 11 12 11
7 0 6 -6 -4 -17 -23 -28 -30 -43 -19 -43 6 0 11 7 11 15 0 22 16 18 34 -7 12
-17 13 -24 3 -30 -9 -6 -9 -8 0 -8 23 0 25 22 2 46 -12 13 -19 27 -15 31 4 4
12 1 17 -7 9 -12 9 -11 4 5 -3 11 -7 25 -8 30 -1 6 -5 12 -9 15 -4 3 1 11 12
18 15 9 22 9 34 -3 13 -13 15 -13 13 4 0 11 -4 18 -8 15 -4 -2 -11 1 -15 7 -4
7 -3 9 3 6 6 -4 13 0 17 8 3 9 12 12 22 8 13 -5 15 -3 9 7 -5 8 -4 11 3 6 6
-4 9 -13 5 -21 -6 -18 -23 -20 -23 -3 0 6 -2 9 -5 6 -3 -3 -3 -12 1 -21 5 -13
9 -14 24 -5 10 7 17 15 14 19 -2 4 4 13 13 20 14 12 15 11 9 -9 -4 -12 -3 -22
2 -22 5 0 8 10 7 23 -3 31 -3 31 -20 17 -12 -10 -15 -10 -15 4 0 9 3 15 8 15
18 -3 33 2 28 9 -8 14 42 52 59 46 10 -4 14 -1 12 7 -2 8 -2 11 0 6 7 -11 23
2 19 16 -1 7 -1 9 1 5 7 -12 31 -9 39 4 5 8 2 9 -11 4 -15 -5 -16 -4 -5 9 11
13 15 13 21 3 7 -10 9 -10 10 2 1 8 1 19 0 23 -1 4 8 3 20 -3 16 -9 18 -14 8
-26z m-314 -224 c3 -6 -1 -7 -9 -4 -18 7 -21 14 -7 14 6 0 13 -4 16 -10z m290
-290 c3 -5 -1 -10 -9 -10 -9 0 -16 5 -16 10 0 6 4 10 9 10 6 0 13 -4 16 -10z
m-513 -12 c-7 -7 -16 -7 -28 0 -14 8 -13 10 10 10 18 0 24 -4 18 -10z m-18
-14 c9 -3 16 -11 16 -16 0 -6 -7 -5 -15 2 -9 7 -18 10 -22 6 -3 -3 -1 -6 5 -6
6 0 9 -10 7 -21 -4 -21 -4 -21 15 -4 16 15 22 15 35 5 8 -7 15 -17 15 -22 0
-6 -6 -5 -14 1 -22 18 -60 -4 -47 -27 11 -20 -12 -58 -28 -47 -6 3 -11 1 -11
-6 0 -8 -3 -9 -13 0 -8 6 -16 9 -19 6 -3 -3 -11 2 -18 10 -11 13 -11 16 1 13
8 -2 13 3 11 10 -1 6 3 12 9 12 6 0 9 -7 6 -14 -4 -11 -1 -13 10 -9 10 4 14 2
10 -4 -3 -5 0 -10 8 -10 19 0 28 26 15 42 -5 6 -8 15 -5 18 3 4 2 5 -2 2 -11
-8 -13 -36 -2 -29 5 3 9 0 9 -6 0 -7 -6 -10 -12 -7 -7 2 -12 10 -10 16 1 6 -2
11 -8 11 -6 0 -10 5 -10 10 0 6 3 9 8 8 4 0 15 2 24 6 13 6 15 12 8 26 -13 24
-3 34 24 24z m-39 -34 c-3 -5 -12 -10 -18 -10 -7 0 -6 4 3 10 19 12 23 12 15
0z m-54 -220 c1 -14 -14 -59 -20 -58 -20 2 -31 -3 -25 -14 16 -26 11 -68 -9
-74 -14 -4 -16 -9 -8 -17 13 -13 14 -27 3 -27 -9 0 -29 37 -30 55 0 6 4 9 9 8
5 -2 9 2 9 8 0 5 4 8 9 4 5 -3 12 -1 16 4 3 6 -6 8 -21 5 -22 -4 -25 -2 -19
13 4 10 8 25 9 33 2 8 9 15 17 15 21 1 58 24 39 25 -13 0 -13 2 0 11 13 9 13
10 -2 6 -9 -3 -21 0 -27 7 -9 11 -5 12 19 7 17 -3 31 -8 31 -11z m-36 -19 c3
-6 -3 -9 -14 -8 -11 0 -17 5 -15 9 7 11 22 10 29 -1z m65 -1 c0 -5 -4 -10 -10
-10 -5 0 -10 5 -10 10 0 6 5 10 10 10 6 0 10 -4 10 -10z m-30 -56 c-15 -17
-30 -18 -30 -1 0 7 9 13 21 14 17 2 18 -1 9 -13z m-95 -84 c3 -5 1 -10 -4 -10
-6 0 -11 5 -11 10 0 6 2 10 4 10 3 0 8 -4 11 -10z m15 -75 c-6 -7 -1 -16 12
-24 20 -12 20 -14 4 -23 -20 -11 -37 -1 -18 11 10 6 4 12 -18 21 -32 13 -27
26 9 26 13 0 17 -4 11 -11z m-15 -35 c-4 -6 -2 -17 4 -24 8 -10 7 -17 -4 -26
-18 -15 -20 -34 -2 -24 6 4 9 4 5 -1 -4 -4 -3 -14 2 -20 6 -7 7 -20 4 -30 -5
-12 -9 -13 -14 -5 -5 9 -9 9 -14 1 -4 -6 -3 -11 3 -11 5 0 8 -9 6 -20 -2 -11
1 -20 6 -20 5 0 9 6 7 13 -3 18 22 58 33 52 13 -9 11 -25 -3 -22 -7 1 -13 -5
-13 -13 0 -8 -3 -19 -6 -25 -4 -5 -5 -29 -4 -51 1 -30 -2 -41 -11 -37 -7 2
-15 -1 -19 -7 -8 -13 14 -42 26 -34 5 3 9 1 9 -4 0 -5 13 -22 30 -38 32 -32
42 -58 11 -30 -14 13 -21 14 -27 5 -4 -8 -3 -10 4 -5 7 4 12 2 12 -4 0 -7 -7
-10 -15 -6 -8 3 -22 3 -30 0 -12 -5 -13 -10 -4 -20 8 -10 8 -14 0 -14 -11 0
-15 12 -12 43 1 9 -4 17 -11 17 -11 0 -10 2 0 9 17 11 17 21 0 32 -10 7 -10 9
0 9 7 0 10 5 7 10 -4 6 -11 7 -17 4 -5 -4 -4 4 3 17 7 13 12 26 11 29 0 3 7 4
16 2 15 -2 15 -1 -1 8 -9 6 -21 9 -26 6 -4 -3 -6 6 -3 19 2 14 8 25 11 25 4 0
8 7 8 15 0 8 -4 15 -9 15 -4 0 -8 -4 -8 -10 0 -5 -5 -10 -12 -10 -6 0 -3 9 7
20 10 11 15 20 10 20 -4 0 -2 7 5 15 8 10 9 19 3 28 -5 6 -10 23 -11 37 -1 17
2 20 7 11 5 -8 11 -9 15 -3 3 5 -1 15 -9 22 -8 7 -15 18 -15 24 0 6 5 4 10 -4
8 -13 10 -12 10 3 0 9 5 17 11 17 5 0 7 -5 4 -10z m475 -11 c0 -5 -4 -9 -10
-9 -5 0 -10 7 -10 16 0 8 5 12 10 9 6 -3 10 -10 10 -16z m-380 -9 c0 -5 -2
-10 -4 -10 -3 0 -8 5 -11 10 -3 6 -1 10 4 10 6 0 11 -4 11 -10z m-52 -435 c-3
-3 -9 2 -12 12 -6 14 -5 15 5 6 7 -7 10 -15 7 -18z m37 -91 c-1 -14 -7 -30
-13 -36 -6 -6 -8 -16 -6 -23 3 -6 -2 -18 -11 -25 -13 -11 -14 -10 -9 5 6 14 4
16 -6 10 -9 -5 -11 -4 -6 4 4 6 12 9 17 6 5 -3 6 1 3 10 -5 11 -10 13 -19 5
-8 -7 -12 -6 -12 3 0 6 -3 19 -5 27 -3 8 -3 12 -1 8 2 -4 10 -6 16 -4 7 1 9 1
5 -1 -13 -8 -9 -20 7 -20 8 0 12 4 10 8 -3 4 2 9 10 13 9 3 12 12 9 21 -5 12
-10 13 -17 6 -14 -14 -27 -14 -27 -1 0 6 7 10 15 10 8 0 15 5 15 11 0 8 4 8
14 0 8 -7 13 -23 11 -37z m5 -104 c0 -5 -5 -10 -11 -10 -5 0 -7 5 -4 10 3 6 8
10 11 10 2 0 4 -4 4 -10z m36 -126 c-5 -14 -4 -15 9 -4 13 11 14 10 9 -3 -3
-10 4 -26 19 -41 15 -14 21 -28 16 -32 -6 -4 -6 -11 2 -20 6 -7 15 -11 20 -8
5 3 9 0 9 -6 0 -6 4 -9 8 -6 4 2 8 -3 8 -12 1 -9 4 -24 8 -33 5 -12 1 -18 -17
-21 -14 -3 -24 0 -24 7 0 7 9 10 21 8 18 -4 18 -2 -4 12 -14 9 -17 14 -7 11 9
-3 17 -3 17 -1 0 8 -57 34 -62 29 -3 -3 -8 2 -11 10 -4 10 -1 13 9 9 14 -5 14
-3 3 15 -8 12 -16 17 -20 11 -3 -6 -11 -4 -19 6 -11 13 -10 15 6 9 18 -5 18
-4 -1 12 -17 14 -17 16 -2 11 9 -4 17 -2 17 3 0 6 -6 10 -14 10 -9 0 -14 9
-13 20 1 11 5 20 10 20 5 0 6 -7 3 -16z m187 -156 c-2 -5 -11 -4 -19 3 -12 10
-13 9 -8 -5 4 -10 13 -14 23 -11 11 3 22 -6 34 -27 21 -36 18 -41 -27 -44 -23
-2 -36 2 -40 12 -3 9 -1 12 4 9 6 -3 10 -1 10 5 0 6 10 15 23 20 21 8 21 9 -5
7 -15 -1 -24 -5 -22 -9 3 -4 1 -8 -4 -8 -7 0 -10 65 -3 78 0 1 10 -3 20 -10
11 -7 17 -16 14 -20z m-78 -47 c3 -5 2 -12 -3 -15 -5 -3 -9 1 -9 9 0 17 3 19
12 6z"/>
<path d="M1080 3748 c-8 -13 -15 -31 -17 -41 -2 -15 -1 -16 11 -5 10 9 11 15
2 20 -6 4 -7 8 -1 8 6 0 16 9 23 20 7 11 9 20 4 20 -4 0 -14 -10 -22 -22z"/>
<path d="M1011 3684 c-12 -20 -25 -34 -28 -31 -3 4 -1 13 5 20 18 21 3 28 -23
11 -27 -18 -27 -32 3 -64 17 -19 19 -26 10 -38 -10 -11 -8 -17 7 -28 10 -8 22
-14 27 -14 4 0 5 -8 2 -17 -5 -15 -4 -16 5 -3 8 11 6 18 -7 28 -9 7 -16 15
-14 17 1 3 2 6 1 8 0 1 -2 11 -4 22 -2 11 -12 27 -22 35 -18 16 -28 40 -17 40
3 0 15 -10 26 -22 11 -13 17 -18 14 -11 -4 6 3 18 14 26 11 7 17 17 12 22 -4
4 1 5 11 2 9 -4 17 -2 17 3 0 6 -6 10 -12 10 -9 0 -8 4 2 10 8 5 10 10 3 10
-6 0 -21 -16 -32 -36z m-16 -114 c3 -5 1 -10 -4 -10 -6 0 -11 5 -11 10 0 6 2
10 4 10 3 0 8 -4 11 -10z"/>
<path d="M1048 3667 c-20 -12 -39 -31 -42 -42 -4 -18 -3 -18 11 3 8 12 21 22
28 22 6 0 20 9 30 20 22 24 20 24 -27 -3z"/>
<path d="M1074 3649 c-3 -6 -2 -15 3 -20 5 -5 9 -1 9 11 0 23 -2 24 -12 9z"/>
<path d="M1034 3629 c-4 -7 -3 -9 4 -5 5 3 12 0 15 -6 2 -7 7 -10 11 -7 4 3 0
12 -8 18 -11 9 -16 9 -22 0z"/>
<path d="M953 3594 c0 -17 2 -22 7 -13 5 6 6 18 3 26 -8 19 -10 16 -10 -13z"/>
<path d="M1016 3595 c-3 -9 1 -18 9 -21 8 -4 12 -10 9 -15 -3 -5 2 -6 12 -2
14 5 14 7 -5 18 -24 12 -18 27 7 18 15 -4 15 -3 2 6 -20 15 -27 14 -34 -4z"/>
<path d="M1076 3595 c-3 -8 -1 -25 5 -37 9 -23 9 -23 5 1 -3 14 0 31 6 38 7 8
7 13 0 13 -5 0 -12 -7 -16 -15z"/>
<path d="M888 3566 c-19 -14 -25 -32 -8 -21 6 3 10 1 10 -4 0 -6 5 -11 11 -11
8 0 8 5 -1 15 -10 12 -9 16 5 22 12 4 23 0 31 -12 8 -10 14 -14 14 -9 0 13
-21 34 -34 34 -6 0 -19 -7 -28 -14z"/>
<path d="M817 3563 c-11 -11 31 -73 49 -73 4 0 -1 9 -11 20 -22 24 -9 27 17 3
10 -9 18 -12 18 -7 0 14 -40 35 -52 28 -7 -5 -9 -2 -5 9 6 17 -5 31 -16 20z"/>
<path d="M957 3536 c-4 -10 -13 -13 -23 -9 -13 5 -11 0 5 -16 l23 -23 19 21
c11 12 15 21 9 21 -6 0 -13 -7 -16 -15 -4 -8 -10 -12 -16 -9 -5 3 -4 12 3 20
6 8 10 17 7 20 -3 3 -8 -2 -11 -10z"/>
<path d="M1045 3540 c-3 -5 -2 -10 4 -10 5 0 13 5 16 10 3 6 2 10 -4 10 -5 0
-13 -4 -16 -10z"/>
<path d="M1061 3521 c-11 -7 -9 -10 8 -16 13 -4 25 -4 28 -1 4 3 -2 6 -13 6
-16 0 -17 2 -4 10 8 5 11 10 5 10 -5 0 -16 -4 -24 -9z"/>
<path d="M1034 3508 c3 -10 -2 -22 -12 -27 -9 -6 -12 -10 -7 -11 6 0 16 4 24
9 10 7 11 12 1 27 -9 16 -11 16 -6 2z"/>
<path d="M912 3501 c-11 -6 -10 -10 4 -15 9 -3 19 -4 22 -1 3 3 0 5 -7 5 -7 0
-9 5 -6 10 7 12 4 12 -13 1z"/>
<path d="M995 3500 c3 -6 1 -10 -6 -10 -7 0 -10 -3 -6 -6 3 -3 13 -2 22 4 16
8 16 9 1 15 -10 4 -15 3 -11 -3z"/>
<path d="M830 3485 c0 -8 4 -15 10 -15 5 0 7 7 4 15 -4 8 -8 15 -10 15 -2 0
-4 -7 -4 -15z"/>
<path d="M871 3480 c-9 -5 -4 -7 13 -7 29 0 32 2 13 10 -8 3 -20 2 -26 -3z"/>
<path d="M1087 3471 c-4 -17 -3 -21 5 -13 5 5 8 16 6 23 -3 8 -7 3 -11 -10z"/>
<path d="M780 3460 c0 -5 5 -10 11 -10 5 0 7 5 4 10 -3 6 -8 10 -11 10 -2 0
-4 -4 -4 -10z"/>
<path d="M930 3466 c0 -4 7 -14 15 -23 12 -12 19 -13 30 -3 8 7 15 18 15 24 0
6 -6 3 -14 -6 -12 -16 -14 -16 -29 0 -9 9 -17 13 -17 8z"/>
<path d="M1055 3449 c4 -13 14 -31 21 -40 14 -15 10 -29 -8 -29 -5 0 -6 5 -3
10 3 6 -1 13 -9 16 -9 3 -13 10 -10 15 3 5 -3 6 -13 2 -16 -6 -16 -5 -4 10 8
10 12 19 10 22 -3 2 -10 -5 -17 -16 -11 -17 -9 -21 13 -31 13 -6 22 -14 20
-19 -3 -4 -1 -11 5 -14 13 -8 42 14 34 26 -3 5 0 9 5 9 6 0 11 5 11 11 0 8 -4
9 -13 0 -16 -13 -27 -5 -27 20 0 10 -5 21 -11 25 -8 4 -9 -1 -4 -17z"/>
<path d="M850 3451 c0 -10 19 -25 25 -20 1 2 -3 10 -11 17 -8 7 -14 8 -14 3z"/>
<path d="M885 3443 c16 -15 16 -17 -2 -26 -37 -21 -39 -53 -2 -42 14 5 17 2
13 -8 -3 -8 -14 -17 -25 -20 -18 -5 -19 -9 -9 -27 9 -16 15 -19 23 -11 17 17
31 13 17 -4 -9 -10 -9 -15 -1 -15 6 0 11 5 11 10 0 6 6 10 14 10 21 0 30 20
16 33 -10 9 -12 8 -6 -7 5 -15 3 -17 -16 -13 -12 4 -27 2 -34 -4 -8 -6 -13 -5
-18 6 -3 9 0 15 9 15 18 0 39 36 26 44 -5 4 -17 3 -28 0 -12 -4 -10 1 9 18 21
18 25 27 17 41 -6 9 -15 17 -20 17 -6 0 -3 -7 6 -17z"/>
<path d="M910 3451 c0 -10 19 -25 25 -20 1 2 -3 10 -11 17 -8 7 -14 8 -14 3z"/>
<path d="M988 3435 c-10 -13 -18 -31 -18 -39 0 -8 -4 -18 -10 -21 -13 -8 -13
-25 1 -25 5 0 8 4 4 9 -3 5 -1 12 5 16 5 3 10 15 10 26 0 12 4 17 11 14 6 -4
8 -14 4 -24 -5 -12 -4 -13 6 -4 9 9 9 16 1 26 -9 10 -9 16 0 25 6 6 10 14 7
16 -2 2 -12 -6 -21 -19z"/>
<path d="M822 3409 c-8 -12 -9 -18 -4 -15 6 3 12 3 15 -1 2 -5 2 -2 1 5 -2 6
1 12 6 12 6 0 10 5 10 10 0 17 -14 11 -28 -11z"/>
<path d="M781 3411 c-7 -5 -12 -13 -10 -18 2 -5 12 -1 22 9 18 19 12 24 -12 9z"/>
<path d="M914 3409 c-3 -6 -2 -15 3 -20 5 -5 9 -1 9 11 0 23 -2 24 -12 9z"/>
<path d="M942 3400 c0 -14 2 -19 5 -12 2 6 2 18 0 25 -3 6 -5 1 -5 -13z"/>
<path d="M670 3394 c-14 -16 -22 -44 -13 -44 2 0 11 7 19 15 9 8 21 15 27 15
7 0 3 -8 -8 -16 -19 -14 -19 -15 -1 -12 10 2 23 -4 29 -13 8 -12 5 -21 -11
-37 -24 -24 -27 -38 -11 -47 6 -4 10 -1 8 6 -3 26 1 40 10 34 19 -11 23 36 5
56 -13 15 -14 19 -3 19 11 0 12 2 1 9 -10 6 -8 10 9 14 13 4 20 9 17 12 -3 4
-16 1 -28 -5 -17 -9 -24 -9 -30 -1 -5 9 -11 7 -20 -5z m20 -8 c0 -2 -7 -7 -16
-10 -8 -3 -12 -2 -9 4 6 10 25 14 25 6z"/>
<path d="M1110 3389 c0 -5 5 -7 10 -4 6 3 10 8 10 11 0 2 -4 4 -10 4 -5 0 -10
-5 -10 -11z"/>
<path d="M743 3375 c-8 -22 5 -31 20 -15 10 10 9 11 -2 5 -11 -6 -13 -4 -8 8
3 10 4 17 1 17 -2 0 -7 -7 -11 -15z"/>
<path d="M795 3380 c3 -6 1 -10 -6 -10 -7 0 -10 -3 -6 -6 3 -3 13 -2 22 4 16
8 16 9 1 15 -10 4 -15 3 -11 -3z"/>
<path d="M1017 3384 c-10 -11 12 -44 30 -44 30 0 2 -14 -32 -17 -28 -1 -33 1
-28 15 5 13 3 14 -7 5 -14 -13 -5 -33 16 -33 8 0 14 -4 14 -10 0 -5 5 -10 11
-10 8 0 7 5 -2 16 -11 13 -9 14 13 9 30 -8 49 22 20 32 -24 9 -33 26 -19 35 8
5 8 8 1 8 -6 0 -14 -3 -17 -6z"/>
<path d="M830 3360 c0 -5 5 -10 10 -10 6 0 10 5 10 10 0 6 -4 10 -10 10 -5 0
-10 -4 -10 -10z"/>
<path d="M915 3359 c-11 -16 -1 -19 13 -3 7 8 8 14 3 14 -5 0 -13 -5 -16 -11z"/>
<path d="M992 3356 c7 -8 15 -12 17 -11 5 6 -10 25 -20 25 -5 0 -4 -6 3 -14z"/>
<path d="M1090 3361 c0 -5 7 -12 16 -15 21 -8 24 -8 24 5 0 5 -4 7 -10 4 -5
-3 -10 -1 -10 4 0 6 -4 11 -10 11 -5 0 -10 -4 -10 -9z"/>
<path d="M615 3330 c-10 -11 -16 -20 -14 -21 2 0 13 -2 23 -4 11 -2 27 0 35 5
9 5 12 10 6 10 -5 0 -3 5 5 11 13 9 13 10 -1 6 -9 -3 -21 -1 -26 4 -6 6 -16 2
-28 -11z m35 -10 c0 -5 -9 -8 -19 -7 -15 1 -17 4 -9 14 11 13 28 9 28 -7z"/>
<path d="M760 3340 c-13 -8 -13 -10 2 -10 9 0 20 5 23 10 8 13 -5 13 -25 0z"/>
<path d="M808 3341 c8 -4 12 -10 11 -12 -6 -9 20 -43 27 -36 5 5 2 12 -6 17
-8 6 -11 10 -6 10 5 0 3 7 -4 15 -7 8 -18 15 -24 15 -7 0 -6 -4 2 -9z"/>
<path d="M694 3331 c4 -5 1 -12 -4 -14 -6 -3 -5 -4 2 -3 15 3 23 26 8 26 -6 0
-9 -4 -6 -9z"/>
<path d="M790 3321 c0 -6 4 -13 10 -16 6 -3 7 1 4 9 -7 18 -14 21 -14 7z"/>
<path d="M754 3309 c-4 -7 -3 -9 4 -5 5 3 12 0 15 -6 2 -7 7 -10 11 -7 4 3 0
12 -8 18 -11 9 -16 9 -22 0z"/>
<path d="M950 3300 c0 -5 5 -10 10 -10 6 0 10 5 10 10 0 6 -4 10 -10 10 -5 0
-10 -4 -10 -10z"/>
<path d="M1070 3301 c0 -6 4 -13 10 -16 6 -3 7 1 4 9 -7 18 -14 21 -14 7z"/>
<path d="M740 3280 c0 -6 7 -13 15 -16 8 -4 12 -11 8 -18 -4 -6 1 -5 10 3 9 7
17 19 16 25 0 7 -2 7 -5 -1 -3 -7 -12 -9 -20 -6 -7 3 -11 9 -8 14 3 5 0 9 -5
9 -6 0 -11 -5 -11 -10z"/>
<path d="M800 3282 c0 -4 10 -9 22 -9 18 -2 20 0 8 7 -18 12 -30 13 -30 2z"/>
<path d="M856 3275 c-3 -9 5 -20 22 -29 15 -8 26 -18 25 -23 -2 -4 3 -8 10 -8
7 0 11 11 10 28 -2 24 0 27 13 17 10 -9 14 -9 14 -1 0 6 -5 11 -11 11 -5 0 -7
5 -4 10 3 6 1 10 -4 10 -6 0 -11 -5 -11 -11 0 -5 -5 -7 -11 -3 -8 5 -8 1 0
-14 14 -26 14 -42 0 -42 -5 0 -7 5 -4 10 3 6 -1 13 -9 16 -9 3 -13 10 -10 15
3 5 -3 6 -13 2 -16 -6 -16 -5 -4 10 7 9 9 17 3 17 -5 0 -12 -7 -16 -15z"/>
<path d="M970 3279 c-12 -8 -10 -9 7 -4 19 5 22 3 17 -12 -5 -14 -4 -15 4 -3
19 25 0 38 -28 19z"/>
<path d="M1040 3274 c0 -8 -4 -13 -9 -9 -11 6 -36 -33 -27 -43 3 -3 6 1 6 9 1
9 8 6 20 -10 11 -13 20 -19 20 -13 0 5 -7 15 -15 22 -17 14 -21 35 -5 25 6 -3
13 1 16 9 3 9 11 13 17 9 6 -3 7 -1 3 5 -10 17 -26 15 -26 -4z"/>
<path d="M656 3245 c-9 -14 -21 -23 -26 -20 -6 4 -10 1 -10 -4 0 -14 13 -14
28 1 8 8 15 8 27 -2 13 -11 18 -11 28 1 7 8 11 13 8 12 -2 -2 -11 3 -20 10
-14 11 -15 10 -1 -7 13 -17 13 -19 0 -14 -8 3 -15 15 -14 27 1 27 0 26 -20 -4z"/>
<path d="M630 3250 c-9 -6 -10 -10 -3 -10 6 0 15 5 18 10 8 12 4 12 -15 0z"/>
<path d="M808 3237 c-3 -19 -2 -25 4 -19 6 6 8 18 6 28 -3 14 -5 12 -10 -9z"/>
<path d="M834 3240 c0 -13 4 -16 10 -10 7 7 7 13 0 20 -6 6 -10 3 -10 -10z"/>
<path d="M730 3240 c0 -5 5 -10 10 -10 6 0 10 5 10 10 0 6 -4 10 -10 10 -5 0
-10 -4 -10 -10z"/>
<path d="M954 3239 c-11 -18 14 -35 29 -20 10 11 9 13 -5 8 -20 -7 -25 9 -5
16 9 4 9 6 0 6 -6 1 -15 -4 -19 -10z"/>
<path d="M754 3214 c-18 -15 -18 -15 4 -4 13 6 22 7 22 1 0 -5 -6 -12 -12 -14
-10 -4 -10 -6 -1 -6 16 -1 27 19 16 30 -5 5 -17 3 -29 -7z"/>
<path d="M857 3224 c-10 -11 12 -44 30 -44 30 0 2 -14 -32 -17 -28 -1 -33 1
-28 15 5 13 3 14 -7 5 -14 -13 -5 -33 16 -33 8 0 14 -4 14 -10 0 -5 5 -10 11
-10 8 0 7 5 -2 16 -11 13 -9 14 13 9 30 -8 49 22 20 32 -24 9 -33 26 -19 35 8
5 8 8 1 8 -6 0 -14 -3 -17 -6z"/>
<path d="M717 3213 c-4 -3 -7 -11 -7 -17 0 -6 5 -5 12 2 6 6 9 14 7 17 -3 3
-9 2 -12 -2z"/>
<path d="M832 3196 c7 -8 15 -12 17 -11 5 6 -10 25 -20 25 -5 0 -4 -6 3 -14z"/>
<path d="M930 3200 c0 -5 11 -12 25 -16 13 -3 24 -9 23 -13 -3 -11 25 -61 34
-61 5 0 0 13 -11 29 -11 15 -17 31 -14 35 4 4 -3 9 -15 13 -12 3 -22 9 -22 14
0 5 -4 9 -10 9 -5 0 -10 -4 -10 -10z"/>
<path d="M990 3198 c0 -11 12 -10 30 2 12 7 10 9 -8 7 -12 0 -22 -5 -22 -9z"/>
<path d="M686 3185 c4 -8 11 -15 16 -15 6 0 5 6 -2 15 -7 8 -14 15 -16 15 -2
0 -1 -7 2 -15z"/>
<path d="M795 3189 c-4 -6 -5 -12 -2 -15 2 -3 7 2 10 11 7 17 1 20 -8 4z"/>
<path d="M718 3169 c-10 -10 -13 -19 -7 -19 5 0 7 -4 4 -10 -4 -6 1 -7 12 -3
15 6 14 2 -5 -21 -12 -16 -22 -35 -22 -43 0 -8 -5 -11 -11 -8 -6 4 -8 14 -4
24 5 13 4 14 -6 4 -10 -10 -10 -16 -1 -25 8 -8 8 -17 1 -30 -6 -11 -9 -22 -6
-24 2 -2 16 20 30 50 31 64 42 73 56 49 6 -10 11 -13 11 -6 0 6 -11 20 -24 31
-23 18 -24 20 -8 35 9 10 12 17 7 16 -6 0 -18 -9 -27 -20z"/>
<path d="M670 3169 c0 -5 -5 -7 -11 -4 -6 4 -5 -2 3 -14 7 -12 16 -21 21 -21
4 0 5 -4 2 -10 -3 -5 -1 -10 4 -10 15 0 14 16 -2 32 -8 7 -12 19 -9 26 2 6 1
12 -2 12 -3 0 -6 -5 -6 -11z"/>
<path d="M755 3171 c-10 -17 15 -45 29 -31 7 7 5 15 -6 26 -11 11 -18 13 -23
5z m25 -22 c0 -6 -4 -7 -10 -4 -5 3 -10 11 -10 16 0 6 5 7 10 4 6 -3 10 -11
10 -16z"/>
<path d="M921 3174 c-1 -5 5 -18 12 -27 9 -13 16 -14 27 -6 12 9 12 10 -4 5
-14 -5 -17 -2 -12 9 3 9 2 14 -3 10 -5 -3 -12 1 -14 7 -3 7 -6 8 -6 2z"/>
<path d="M791 3127 c-13 -21 -12 -21 5 -5 10 10 16 20 13 22 -3 3 -11 -5 -18
-17z"/>
<path d="M910 3143 c0 -6 8 -17 18 -24 16 -13 16 -13 2 6 -8 11 -16 22 -17 24
-2 2 -3 0 -3 -6z"/>
<path d="M628 3123 c6 -2 18 -2 25 0 6 3 1 5 -13 5 -14 0 -19 -2 -12 -5z"/>
<path d="M819 3123 c-1 -5 -1 -11 0 -15 0 -5 -8 -8 -18 -8 -11 0 -23 -4 -26
-10 -11 -18 -35 -11 -28 8 5 13 3 14 -7 5 -14 -13 -5 -33 16 -33 8 0 14 -4 14
-10 0 -5 5 -10 11 -10 8 0 8 5 -1 15 -10 12 -9 16 4 20 9 3 23 7 32 10 8 3 12
9 9 15 -3 5 -2 10 3 10 17 0 22 -13 10 -27 -8 -10 -8 -17 1 -26 10 -9 11 -8 6
4 -4 10 -2 20 4 24 7 3 11 -3 12 -17 1 -18 2 -19 6 -5 3 10 -3 27 -13 38 -18
20 -33 25 -35 12z"/>
<path d="M874 3118 c-4 -7 -4 -10 1 -6 5 5 14 -1 22 -12 8 -11 20 -17 29 -13
12 4 13 8 3 14 -7 4 -17 5 -21 3 -4 -3 -8 2 -8 10 0 19 -16 21 -26 4z"/>
<path d="M955 3120 c-4 -6 -4 -14 -1 -17 3 -4 6 -1 6 5 0 7 5 12 10 12 6 0 9
-5 8 -12 -2 -6 6 -13 17 -15 18 -3 18 -2 2 5 -10 4 -18 12 -17 17 2 14 -17 18
-25 5z"/>
<path d="M624 3095 c15 -11 23 -12 33 -3 7 6 11 13 8 17 -3 3 -10 -1 -14 -8
-6 -9 -11 -10 -15 -2 -4 6 -13 11 -19 11 -7 0 -3 -7 7 -15z"/>
<path d="M591 3080 c-9 -5 -4 -7 13 -7 29 0 32 2 13 10 -8 3 -20 2 -26 -3z"/>
<path d="M936 3075 c-10 -8 -23 -12 -28 -9 -4 3 -11 -2 -14 -10 -3 -9 -11 -13
-17 -9 -6 3 -7 1 -3 -5 10 -17 26 -15 26 4 0 8 4 13 8 10 5 -3 21 4 38 15 16
10 25 19 19 19 -5 -1 -19 -7 -29 -15z"/>
<path d="M804 3066 c11 -9 16 -16 12 -16 -4 0 0 -10 8 -22 18 -26 21 -48 6
-48 -5 0 -9 5 -7 12 3 17 -34 23 -44 6 -6 -8 -3 -17 8 -25 9 -7 13 -13 9 -13
-4 0 0 -7 9 -16 26 -27 27 -9 1 19 -24 26 -24 37 1 37 7 0 12 -6 11 -12 -2 -7
4 -13 12 -13 10 0 14 9 13 28 -2 24 0 27 13 17 10 -9 14 -9 14 -1 0 6 -5 11
-11 11 -5 0 -7 5 -4 10 3 6 1 10 -4 10 -6 0 -11 -5 -11 -11 0 -5 -5 -7 -10 -4
-6 4 -8 10 -5 15 3 5 -5 14 -17 20 -22 11 -22 10 -4 -4z"/>
<path d="M627 3053 c-11 -11 -17 -13 -17 -5 0 7 -4 12 -8 12 -5 0 -9 -7 -9
-15 0 -8 3 -13 5 -10 3 3 11 -4 19 -15 8 -11 22 -20 31 -19 15 0 15 1 -1 7
-16 7 -16 9 3 25 12 10 18 22 15 27 -9 14 -18 12 -38 -7z m18 -13 c-10 -11
-20 -18 -23 -15 -7 6 18 35 31 35 5 0 2 -9 -8 -20z"/>
<path d="M702 3028 c-13 -22 -21 -42 -18 -46 3 -3 6 0 6 7 0 7 4 9 10 6 5 -3
7 0 5 7 -4 9 2 14 15 14 13 0 19 -5 15 -14 -2 -7 0 -10 5 -7 6 3 10 1 10 -6 0
-7 3 -10 6 -7 12 12 -16 47 -32 41 -14 -5 -15 -3 -4 16 21 40 5 31 -18 -11z"/>
<path d="M954 3059 c-3 -6 -1 -16 5 -22 9 -9 14 -8 21 3 9 15 4 30 -10 30 -5
0 -12 -5 -16 -11z m26 -3 c0 -3 -4 -8 -10 -11 -5 -3 -10 -1 -10 4 0 6 5 11 10
11 6 0 10 -2 10 -4z"/>
<path d="M535 3050 c3 -5 8 -10 11 -10 2 0 4 5 4 10 0 6 -5 10 -11 10 -5 0 -7
-4 -4 -10z"/>
<path d="M566 3045 c-3 -8 -1 -15 4 -15 6 0 10 7 10 15 0 8 -2 15 -4 15 -2 0
-6 -7 -10 -15z"/>
<path d="M752 3030 c7 -10 14 -18 15 -16 6 6 -9 36 -18 36 -5 0 -4 -9 3 -20z"/>
<path d="M920 3035 c-7 -9 -11 -17 -9 -20 3 -2 10 5 17 15 14 24 10 26 -8 5z"/>
<path d="M780 3036 c0 -2 7 -7 16 -10 8 -3 12 -2 9 4 -6 10 -25 14 -25 6z"/>
<path d="M929 3009 c-6 -11 -8 -23 -5 -27 3 -3 6 1 6 8 0 10 5 9 18 -3 22 -20
32 -21 32 -5 0 6 -3 8 -7 5 -8 -8 -33 11 -33 25 0 6 7 5 15 -2 9 -7 17 -11 20
-9 2 3 -5 10 -15 17 -16 10 -21 9 -31 -9z"/>
<path d="M478 3013 c-21 -5 -23 -14 -6 -31 15 -15 28 -15 28 -1 0 5 -4 8 -9 4
-5 -3 -12 -1 -16 5 -3 5 -4 10 -1 10 2 0 11 3 20 6 11 4 16 0 16 -12 0 -16 2
-16 10 -4 8 13 -5 32 -20 29 -3 -1 -13 -3 -22 -6z"/>
<path d="M580 3014 c0 -5 6 -19 14 -30 11 -14 18 -16 26 -8 8 8 7 14 -5 24 -8
7 -15 9 -15 4 0 -5 -5 -2 -10 6 -5 8 -10 10 -10 4z m35 -24 c3 -5 1 -10 -4
-10 -6 0 -11 5 -11 10 0 6 2 10 4 10 3 0 8 -4 11 -10z"/>
<path d="M874 2999 c-11 -18 14 -35 29 -20 10 11 9 13 -5 8 -20 -7 -25 9 -5
16 9 4 9 6 0 6 -6 1 -15 -4 -19 -10z"/>
<path d="M523 2975 c-15 -16 -16 -25 -5 -25 4 0 13 9 20 20 14 23 3 26 -15 5z"/>
<path d="M632 2970 c-22 -18 -22 -19 -2 -25 12 -4 28 -1 37 7 9 7 17 12 17 10
1 -2 10 0 20 4 12 5 21 3 24 -4 4 -14 22 -16 22 -3 0 16 -40 23 -55 11 -8 -7
-15 -9 -15 -4 0 4 -5 3 -12 -4 -7 -7 -19 -12 -27 -12 -11 0 -9 6 9 20 14 11
21 20 15 19 -5 0 -20 -8 -33 -19z"/>
<path d="M554 2962 c3 -2 -6 -13 -19 -24 -16 -12 -22 -25 -18 -36 6 -15 5 -15
-10 -3 -11 9 -17 10 -17 2 0 -6 5 -11 11 -11 5 0 7 -5 4 -10 -4 -6 -12 -7 -18
-3 -7 4 -6 0 2 -10 7 -9 19 -17 27 -17 7 0 18 -8 24 -17 8 -12 10 -13 7 -3 -2
8 -13 20 -25 26 -23 11 -20 26 4 17 16 -6 18 1 4 26 -7 14 -3 22 20 39 34 25
48 29 30 7 -9 -10 -9 -15 -1 -15 6 0 11 5 11 10 0 6 0 13 0 18 0 4 -9 8 -20 8
-11 1 -18 -1 -16 -4z"/>
<path d="M850 2960 c0 -5 5 -10 10 -10 6 0 10 5 10 10 0 6 -4 10 -10 10 -5 0
-10 -4 -10 -10z"/>
<path d="M910 2958 c0 -11 12 -10 30 2 12 7 10 9 -8 7 -12 0 -22 -5 -22 -9z"/>
<path d="M694 2939 c-5 -9 -2 -10 9 -6 18 7 24 -8 7 -16 -6 -3 -5 -4 2 -3 16
3 17 28 1 33 -6 2 -15 -1 -19 -8z"/>
<path d="M755 2940 c-3 -5 -3 -20 1 -33 6 -19 5 -20 -10 -8 -10 9 -16 10 -16
2 0 -6 5 -11 11 -11 5 0 7 -4 4 -10 -3 -5 -1 -10 4 -10 6 0 11 5 11 12 0 6 3
8 8 4 4 -4 7 -13 7 -19 0 -16 35 -21 49 -7 8 9 4 10 -19 4 -16 -4 -27 -3 -23
1 4 4 1 17 -7 29 -17 24 -19 46 -5 46 6 0 9 -6 8 -12 -2 -7 8 -14 22 -15 24
-2 24 -2 2 5 -13 4 -23 11 -22 17 2 14 -17 18 -25 5z"/>
<path d="M875 2940 c-4 -6 -4 -14 -1 -17 3 -4 6 -1 6 5 0 7 5 12 12 12 6 0 8
-3 5 -6 -3 -4 0 -16 8 -28 18 -25 19 -47 3 -43 -7 1 -13 -4 -13 -12 0 -8 6
-15 13 -17 7 -1 8 0 2 3 -5 2 -10 9 -10 14 0 6 5 7 10 4 17 -10 23 22 9 47 -7
13 -13 27 -14 32 0 14 -22 18 -30 6z"/>
<path d="M940 2946 c0 -2 7 -7 16 -10 8 -3 12 -2 9 4 -6 10 -25 14 -25 6z"/>
<path d="M601 2935 c-2 -18 29 -55 45 -55 8 0 13 -4 9 -9 -6 -11 33 -36 43
-27 3 3 0 6 -8 6 -10 0 -10 3 0 15 17 20 31 19 24 -2 -5 -15 -4 -16 5 -3 17
24 -6 36 -29 15 -11 -10 -22 -16 -25 -13 -3 3 1 11 10 18 8 7 15 18 15 24 0 6
-5 4 -10 -6 -6 -10 -18 -14 -31 -11 -16 5 -18 8 -7 15 9 7 8 8 -6 4 -14 -5
-17 -2 -12 9 3 9 2 14 -3 10 -5 -3 -12 1 -14 7 -3 7 -6 8 -6 3z"/>
<path d="M670 2931 c0 -7 -4 -9 -10 -6 -6 4 -7 -1 -3 -11 6 -15 7 -15 15 1 6
9 7 19 4 22 -3 4 -6 1 -6 -6z"/>
<path d="M840 2934 c0 -5 6 -18 13 -27 9 -12 16 -14 27 -6 13 9 13 10 0 6 -8
-2 -20 5 -27 17 -7 12 -12 16 -13 10z"/>
<path d="M921 2934 c-1 -5 5 -18 12 -28 12 -16 13 -16 13 3 0 11 -3 18 -7 15
-4 -2 -10 2 -12 8 -3 7 -6 8 -6 2z"/>
<path d="M548 2913 c6 -2 18 -2 25 0 6 3 1 5 -13 5 -14 0 -19 -2 -12 -5z"/>
<path d="M584 2895 c-4 -8 -1 -22 5 -29 9 -11 9 -15 -1 -19 -7 -3 -8 -6 -2 -6
5 -1 18 5 28 12 17 12 17 14 -1 28 -17 13 -17 13 -3 -5 13 -17 13 -19 0 -14
-8 3 -15 15 -14 27 1 25 -4 27 -12 6z"/>
<path d="M830 2904 c0 -13 18 -39 24 -34 2 3 -2 14 -10 24 -8 11 -14 16 -14
10z"/>
<path d="M797 2889 c7 -7 15 -10 18 -7 3 3 -2 9 -12 12 -14 6 -15 5 -6 -5z"/>
<path d="M876 2874 c-9 -24 -2 -26 12 -4 7 11 8 20 3 20 -5 0 -12 -7 -15 -16z"/>
<path d="M550 2860 c0 -5 5 -10 10 -10 6 0 10 5 10 10 0 6 -4 10 -10 10 -5 0
-10 -4 -10 -10z"/>
<path d="M460 2850 c-9 -6 -10 -10 -3 -10 6 0 19 -7 28 -16 22 -23 27 -13 7
13 -13 17 -21 20 -32 13z"/>
<path d="M731 2844 c-1 -11 8 -29 19 -39 16 -14 17 -21 8 -32 -8 -11 -8 -17 2
-26 10 -9 11 -9 6 1 -4 6 -4 18 0 24 6 9 10 5 15 -12 6 -22 7 -22 8 -4 1 11
-8 29 -19 39 -16 14 -17 21 -8 32 8 11 8 17 -2 26 -10 9 -11 9 -6 0 4 -7 4
-19 0 -25 -6 -9 -10 -5 -15 12 -6 22 -7 22 -8 4z"/>
<path d="M830 2845 c-7 -8 -21 -15 -31 -15 -26 0 -32 -16 -11 -31 15 -13 16
-12 3 4 -12 15 -11 17 7 17 11 0 25 7 32 15 7 8 16 12 21 9 13 -8 11 -24 -2
-21 -6 1 -14 -5 -16 -13 -4 -12 -3 -12 5 -2 5 8 13 13 18 12 15 -3 15 16 1 29
-11 9 -17 8 -27 -4z"/>
<path d="M640 2840 c8 -5 20 -10 25 -10 6 0 3 5 -5 10 -8 5 -19 10 -25 10 -5
0 -3 -5 5 -10z"/>
<path d="M560 2836 c0 -2 7 -9 15 -16 9 -7 15 -8 15 -2 0 5 -7 12 -15 16 -8 3
-15 4 -15 2z"/>
<path d="M610 2838 c0 -2 9 -11 20 -21 11 -9 20 -13 20 -7 0 5 -9 14 -20 20
-11 6 -20 9 -20 8z"/>
<path d="M693 2818 c3 -9 -3 -28 -13 -41 -17 -21 -18 -26 -5 -37 15 -13 39 -4
30 11 -4 5 -2 9 2 9 5 0 17 6 27 13 17 12 17 14 -1 28 -17 13 -17 13 -3 -5 14
-18 13 -19 -3 -13 -10 4 -16 3 -13 -2 3 -5 -1 -12 -10 -15 -8 -3 -12 -10 -9
-16 3 -5 2 -10 -3 -10 -20 0 -20 14 0 41 18 24 20 31 8 42 -10 10 -12 9 -7 -5z"/>
<path d="M876 2815 c-3 -9 -6 -22 -5 -28 0 -7 5 -1 10 12 5 13 8 26 5 28 -2 2
-6 -3 -10 -12z"/>
<path d="M462 2800 c-7 -11 -8 -20 -3 -20 9 0 24 30 18 36 -1 2 -8 -6 -15 -16z"/>
<path d="M597 2806 c-4 -9 -3 -15 2 -11 5 3 11 0 13 -7 3 -7 7 -5 11 6 4 9 3
15 -2 11 -5 -3 -11 0 -13 7 -3 7 -7 5 -11 -6z"/>
<path d="M671 2808 c-1 -10 -5 -18 -11 -18 -5 0 -10 -5 -10 -12 0 -8 6 -7 16
4 9 9 14 22 11 30 -4 9 -6 7 -6 -4z"/>
<path d="M525 2800 c3 -5 8 -10 11 -10 2 0 4 5 4 10 0 6 -5 10 -11 10 -5 0 -7
-4 -4 -10z"/>
<path d="M550 2795 c0 -8 2 -15 4 -15 2 0 6 7 10 15 3 8 1 15 -4 15 -6 0 -10
-7 -10 -15z"/>
<path d="M813 2795 c1 -11 7 -20 12 -20 6 -1 20 -6 32 -13 17 -10 23 -9 29 0
4 7 3 10 -1 5 -5 -4 -19 0 -32 8 -13 9 -23 12 -24 8 0 -5 -5 1 -10 12 l-9 20
3 -20z"/>
<path d="M478 2775 c-6 -14 -15 -25 -19 -25 -4 0 -10 -7 -13 -16 -6 -14 -4
-15 9 -4 18 15 49 70 40 70 -3 0 -11 -11 -17 -25z"/>
<path d="M512 2785 c4 -4 0 -14 -10 -21 -14 -11 -15 -15 -3 -26 12 -11 13 -10
7 6 -5 14 -2 17 9 12 11 -4 14 -2 9 6 -5 8 -2 9 9 5 25 -9 21 0 -5 14 -13 6
-20 8 -16 4z"/>
<path d="M571 2785 c-1 -19 36 -58 48 -51 6 4 9 12 6 17 -4 5 -2 9 4 9 5 0 12
-5 14 -10 3 -6 4 -5 3 2 -2 7 -14 13 -27 13 -13 -1 -29 6 -36 15 -7 8 -12 11
-12 5z m44 -35 c3 -5 1 -10 -4 -10 -6 0 -11 5 -11 10 0 6 2 10 4 10 3 0 8 -4
11 -10z"/>
<path d="M426 2754 c-9 -23 -4 -24 17 -2 13 14 14 18 3 18 -8 0 -17 -7 -20
-16z"/>
<path d="M542 2744 c-12 -8 -21 -23 -21 -32 1 -14 2 -14 6 2 4 16 7 15 24 -10
10 -16 19 -25 19 -21 0 4 -7 19 -16 32 -15 23 -15 25 0 25 9 0 16 5 16 10 0
13 -2 13 -28 -6z"/>
<path d="M727 2744 c7 -3 9 -13 6 -22 -4 -14 -3 -14 5 -2 12 16 7 30 -11 29
-9 0 -9 -2 0 -5z"/>
<path d="M810 2731 c0 -7 -4 -9 -10 -6 -5 3 -10 1 -10 -4 0 -6 4 -11 9 -11 13
0 25 20 17 27 -3 4 -6 1 -6 -6z"/>
<path d="M465 2720 c-3 -5 1 -20 9 -32 9 -12 16 -18 16 -12 0 5 -5 15 -12 22
-6 6 -9 15 -5 19 4 3 14 -2 22 -13 8 -10 15 -14 15 -8 0 11 -20 34 -31 34 -4
0 -11 -4 -14 -10z"/>
<path d="M572 2718 c3 -7 13 -13 24 -14 16 -1 16 0 1 3 -9 3 -15 9 -12 14 4 5
1 9 -5 9 -7 0 -10 -6 -8 -12z"/>
<path d="M633 2709 c0 -26 0 -26 19 -7 11 11 17 23 13 26 -3 4 -10 0 -14 -7
-7 -11 -9 -11 -13 0 -3 8 -5 2 -5 -12z"/>
<path d="M755 2720 c-8 -13 4 -32 16 -25 5 4 9 1 9 -4 0 -16 -22 -13 -48 5
-25 17 -44 11 -35 -12 4 -11 13 -14 31 -9 22 5 24 4 13 -9 -9 -11 -10 -16 -2
-16 6 0 11 4 11 9 0 5 9 11 21 14 21 6 21 34 0 30 -15 -4 -14 14 2 20 9 4 9 6
0 6 -6 1 -15 -3 -18 -9z m-30 -30 c3 -5 2 -10 -4 -10 -5 0 -13 5 -16 10 -3 6
-2 10 4 10 5 0 13 -4 16 -10z"/>
<path d="M670 2691 c0 -7 -4 -9 -10 -6 -5 3 -7 0 -4 -9 4 -10 0 -14 -13 -11
-10 1 -28 -9 -41 -24 -21 -24 -22 -24 -17 -4 3 12 1 24 -4 27 -6 4 -9 -4 -8
-19 1 -14 5 -25 10 -25 4 0 11 0 16 0 5 0 12 9 16 19 4 13 13 18 25 16 20 -4
48 30 36 43 -3 3 -6 0 -6 -7z"/>
<path d="M530 2680 c0 -5 5 -10 10 -10 6 0 10 5 10 10 0 6 -4 10 -10 10 -5 0
-10 -4 -10 -10z"/>
<path d="M590 2676 c7 -7 13 -7 20 0 6 6 3 10 -10 10 -13 0 -16 -4 -10 -10z"/>
<path d="M497 2660 c-8 -11 -16 -19 -18 -17 -3 1 5 -8 17 -19 13 -12 20 -25
16 -28 -3 -4 1 -4 11 0 14 5 16 2 11 -12 -6 -16 -5 -17 7 -6 12 11 11 15 -3
26 -14 10 -15 15 -5 25 9 10 8 15 -5 25 -10 7 -15 16 -11 19 3 4 4 7 0 7 -3 0
-12 -9 -20 -20z m33 -20 c0 -13 -19 -22 -30 -15 -14 9 0 34 16 28 8 -3 14 -9
14 -13z"/>
<path d="M750 2640 c-8 -5 -10 -10 -5 -10 6 0 17 5 25 10 8 5 11 10 5 10 -5 0
-17 -5 -25 -10z"/>
<path d="M420 2634 c0 -6 10 -19 22 -30 12 -10 18 -13 14 -6 -4 6 -2 12 3 12
6 0 11 5 11 11 0 8 -4 8 -14 0 -11 -10 -17 -8 -25 6 -6 10 -11 13 -11 7z"/>
<path d="M550 2624 c0 -5 7 -18 15 -28 8 -11 15 -16 15 -10 0 5 -7 18 -15 28
-8 11 -15 16 -15 10z"/>
<path d="M477 2603 c-13 -12 -7 -23 11 -22 10 0 12 3 4 6 -6 2 -10 9 -6 14 6
10 0 12 -9 2z"/>
<path d="M510 2569 c0 -5 -5 -7 -11 -4 -6 4 -5 -2 3 -14 14 -22 28 -28 28 -11
0 6 -4 10 -10 10 -5 0 -7 7 -4 15 4 8 3 15 0 15 -3 0 -6 -5 -6 -11z"/>
<path d="M545 2560 c-3 -5 -2 -10 4 -10 5 0 13 5 16 10 3 6 2 10 -4 10 -5 0
-13 -4 -16 -10z"/>
<path d="M477 2543 c-13 -12 -7 -23 11 -22 10 0 12 3 4 6 -6 2 -10 9 -6 14 6
10 0 12 -9 2z"/>
<path d="M450 2519 c0 -28 24 -41 46 -24 10 8 14 15 7 15 -6 0 -15 -5 -19 -11
-4 -8 -12 -3 -20 12 -9 17 -13 19 -14 8z"/>
<path d="M426 2495 c-3 -9 -2 -24 2 -32 8 -13 10 -13 16 2 3 9 2 24 -2 32 -8
13 -10 13 -16 -2z"/>
<path d="M540 2496 c0 -2 7 -7 16 -10 8 -3 12 -2 9 4 -6 10 -25 14 -25 6z"/>
<path d="M510 2480 c0 -5 5 -10 10 -10 6 0 10 5 10 10 0 6 -4 10 -10 10 -5 0
-10 -4 -10 -10z"/>
<path d="M457 2463 c-4 -3 -7 -13 -7 -22 1 -13 3 -13 11 2 11 19 8 33 -4 20z"/>
<path d="M485 2460 c3 -5 11 -10 16 -10 6 0 7 5 4 10 -3 6 -11 10 -16 10 -6 0
-7 -4 -4 -10z"/>
<path d="M526 2443 c2 -7 0 -13 -4 -13 -4 0 -13 -9 -20 -21 -8 -12 -9 -18 -4
-15 6 3 12 3 15 -1 2 -5 2 -2 1 5 -2 6 0 12 4 12 4 0 13 9 20 21 8 12 9 18 4
15 -6 -3 -12 -3 -15 1 -2 5 -2 2 -1 -4z"/>
<path d="M470 2431 c0 -6 5 -13 12 -17 6 -4 8 -3 4 4 -3 5 0 13 6 15 8 3 6 6
-4 6 -10 1 -18 -3 -18 -8z"/>
<path d="M570 2419 c0 -5 5 -7 10 -4 6 3 10 8 10 11 0 2 -4 4 -10 4 -5 0 -10
-5 -10 -11z"/>
<path d="M490 2373 c5 -2 8 -9 5 -13 -3 -5 4 -14 16 -20 12 -7 19 -8 15 -2 -3
6 0 13 6 16 7 3 3 3 -10 0 -15 -4 -22 -1 -20 6 2 7 -3 14 -10 16 -7 1 -8 0 -2
-3z"/>
<path d="M486 2323 c2 -7 -6 -17 -16 -23 -26 -14 -25 -26 1 -41 28 -15 65 17
48 41 -9 13 -10 13 -6 -2 7 -22 -2 -30 -18 -15 -11 10 -10 16 3 31 10 11 12
16 5 13 -6 -4 -13 -4 -16 0 -2 5 -2 2 -1 -4z m4 -48 c14 -16 10 -18 -14 -9 -9
3 -16 10 -16 15 0 14 16 11 30 -6z"/>
<path d="M430 2261 c0 -5 5 -13 10 -16 6 -3 10 -2 10 4 0 5 -4 13 -10 16 -5 3
-10 2 -10 -4z"/>
<path d="M464 2237 c3 -10 6 -21 6 -24 0 -3 11 2 25 11 22 15 25 15 34 -1 5
-10 12 -16 14 -13 3 3 -1 13 -8 23 -11 16 -16 17 -34 5 -18 -11 -23 -11 -32 2
-9 12 -10 12 -5 -3z"/>
<path d="M513 2194 c0 -17 2 -22 7 -13 5 6 6 18 3 26 -8 19 -10 16 -10 -13z"/>
<path d="M540 2095 c10 -12 10 -18 0 -30 -7 -8 -9 -15 -4 -15 5 0 17 12 27 25
14 20 15 24 2 19 -8 -3 -15 -1 -15 5 0 6 -5 11 -11 11 -8 0 -8 -5 1 -15z"/>
<path d="M510 2080 c0 -5 5 -10 10 -10 6 0 10 5 10 10 0 6 -4 10 -10 10 -5 0
-10 -4 -10 -10z"/>
<path d="M387 2876 c-4 -10 -1 -13 9 -9 15 6 19 23 5 23 -5 0 -11 -7 -14 -14z"/>
<path d="M376 2818 c3 -4 11 -5 19 -1 21 7 19 12 -4 10 -11 0 -18 -5 -15 -9z"/>
<path d="M340 2606 c0 -2 8 -10 18 -17 15 -13 16 -12 3 4 -13 16 -21 21 -21
13z"/>
<path d="M345 2490 c-4 -6 -3 -16 3 -22 6 -6 12 -6 17 2 4 6 3 16 -3 22 -6 6
-12 6 -17 -2z"/>
<path d="M355 2349 c3 -38 6 -40 26 -20 16 15 15 17 -6 33 -22 17 -22 17 -20
-13z m20 2 c3 -5 2 -12 -3 -15 -5 -3 -9 1 -9 9 0 17 3 19 12 6z"/>
<path d="M511 1853 c7 -12 15 -20 18 -17 3 2 -3 12 -13 22 -17 16 -18 16 -5
-5z"/>
<path d="M661 1697 c-8 -10 -7 -14 4 -14 8 0 12 5 8 10 -3 5 4 6 17 2 15 -5
20 -4 16 4 -10 15 -31 14 -45 -2z"/>
</g>
</svg>
